<?xml version="1.0" encoding="UTF-8"?>
<svg id="Layer_2" data-name="Layer 2" xmlns="http://www.w3.org/2000/svg" viewBox="0 0 601.5 73.6">
  <defs>
    <style>
      .cls-1 {
        fill: #fff;
      }
    </style>
  </defs>
  <g id="Layer_2-2" data-name="Layer 2">
    <g id="Layer_1-2" data-name="Layer 1-2">
      <g>
        <rect class="cls-1" x="75.1" y="18.6" width="12.6" height="51.9"/>
        <polygon class="cls-1" points="150.8 18.6 133.6 41.4 133.6 18.6 121 18.6 121 70.5 133.6 70.5 133.6 47.6 151.1 70.5 167.3 70.5 146 44.5 167.3 18.6 150.8 18.6"/>
        <rect class="cls-1" x="196.4" y="18.6" width="12.6" height="51.9"/>
        <path class="cls-1" d="M279.1,43.3c1.8-2.9,2.7-5.8,2.7-8.8,0-4.4-1.7-8.1-5-11.2-3.4-3.1-8-4.7-14-4.7h-20.5v51.9h12.6v-20.2h1.5l11.7,20.2h14.8l-12.7-21.1c4.1-1.2,7.1-3.3,8.9-6.1Zm-11.8-4.3c-1.1,1.1-2.6,1.7-4.5,1.7h-7.8v-12.5h7.8c1.9,0,3.4,.6,4.5,1.8,1.1,1.2,1.7,2.7,1.7,4.5,0,1.9-.6,3.4-1.7,4.5Z"/>
        <polygon class="cls-1" points="328.3 45.7 315 19.5 309.4 19.5 325.8 50.4 325.8 70.5 330.9 70.5 330.9 50.4 347.2 19.5 341.6 19.5 328.3 45.7"/>
        <path class="cls-1" d="M393.2,19.5l-18.8,51h5.2l4.4-11.9h23.8l4.3,11.9h5.2l-18.7-51h-5.4Zm-7.8,34.9l10.4-28.5,10.3,28.5h-20.7Z"/>
        <path class="cls-1" d="M464.5,19.5h-15.6v51h5.2v-21.4h10.4c5.8,0,10.1-1.4,13-4.1s4.4-6.3,4.4-10.7-1.5-8-4.4-10.8c-3-2.6-7.3-4-13-4Zm-.1,25.4h-10.4V23.7h10.4c8.1,0,12.2,3.5,12.2,10.6s-4,10.6-12.2,10.6Z"/>
        <rect class="cls-1" x="512.6" y="19.5" width="5.2" height="51"/>
        <polygon class="cls-1" points="596.7 19.5 576.3 63 555.8 19.5 551 19.5 551 70.5 556.2 70.5 556.2 31.4 574.7 70.5 577.8 70.5 596.3 31.2 596.3 70.5 601.5 70.5 601.5 19.5 596.7 19.5"/>
        <path class="cls-1" d="M0,73.6c5.8-5.8,11-10.9,16-16.2,1.2-1.3,2-3.3,2.1-5,.3-4.9,.1-9.8,.1-15,5.2,0,10,.2,14.8-.1,1.8-.1,4-.9,5.3-2.2,4.7-4.3,9.1-9,13.7-13.5,.7-.7,1.2-1.4,2-2.5H0v54.5Z"/>
        <path class="cls-1" d="M81.5,0c-3.8,0-7,3.1-7,6.9s3.3,7,7,7,6.7-3.1,6.8-6.8c.1-3.9-2.9-7-6.8-7.1Z"/>
        <path class="cls-1" d="M28.6,41.5c-3.8,0-7,3.1-7,6.9s3.3,7,7,7,6.7-3.1,6.8-6.8c.1-3.9-2.9-7.1-6.8-7.1Z"/>
        <path class="cls-1" d="M202.8,1.5c-3.8,0-7,3.1-7,6.9s3.3,7,7,7,6.7-3.1,6.8-6.8c.1-3.9-2.9-7-6.8-7.1Z"/>
      </g>
    </g>
  </g>
</svg>